{
    "asset" : {
        "generator" : "Khronos glTF Blender I/O v1.2.75",
        "version" : "2.0"
    },
    "scene" : 0,
    "scenes" : [
        {
            "name" : "Scene",
            "nodes" : [
                0,
                1,
                2,
                3,
                4,
                5,
                6,
                7
            ]
        }
    ],
    "nodes" : [
        {
            "mesh" : 0,
            "name" : "Cube",
            "rotation" : [
                0.17010539770126343,
                0.1804550290107727,
                -0.10058531910181046,
                0.96352618932724
            ],
            "translation" : [
                -0.004570661578327417,
                1.7450792789459229,
                -0.005220324732363224
            ]
        },
        {
            "name" : "Light",
            "rotation" : [
                0.15291725099086761,
                0.746889591217041,
                -0.35786592960357666,
                0.53916996717453
            ],
            "translation" : [
                4.076245307922363,
                7.240976810455322,
                -1.0054539442062378
            ]
        },
        {
            "name" : "Camera",
            "rotation" : [
                0.483536034822464,
                0.33687159419059753,
                -0.20870360732078552,
                0.7804827094078064
            ],
            "translation" : [
                5.423386573791504,
                5.086510181427002,
                5.018330097198486
            ]
        },
        {
            "mesh" : 1,
            "name" : "Cube.001",
            "rotation" : [
                0.17010539770126343,
                0.1804550290107727,
                -0.10058531910181046,
                0.96352618932724
            ],
            "scale" : [
                0.2526518404483795,
                0.2526518404483795,
                0.2526518404483795
            ],
            "translation" : [
                -0.004570660647004843,
                1.7450792789459229,
                -0.005220324732363224
            ]
        },
        {
            "mesh" : 2,
            "name" : "Cube.002",
            "rotation" : [
                0.17010539770126343,
                0.1804550290107727,
                -0.10058531910181046,
                0.96352618932724
            ],
            "translation" : [
                -0.004570661578327417,
                1.7450792789459229,
                -0.005220324732363224
            ]
        },
        {
            "mesh" : 3,
            "name" : "Cube.003",
            "rotation" : [
                0.17010539770126343,
                0.1804550290107727,
                -0.10058531910181046,
                0.96352618932724
            ],
            "translation" : [
                -0.004570661578327417,
                1.7450792789459229,
                -0.005220324732363224
            ]
        },
        {
            "mesh" : 4,
            "name" : "Cube.004",
            "rotation" : [
                0.17010539770126343,
                0.1804550290107727,
                -0.10058531910181046,
                0.96352618932724
            ],
            "translation" : [
                -0.004570661578327417,
                1.7450792789459229,
                -0.005220324732363224
            ]
        },
        {
            "mesh" : 5,
            "name" : "Cube.005",
            "rotation" : [
                0.17010539770126343,
                0.1804550290107727,
                -0.10058531910181046,
                0.96352618932724
            ],
            "translation" : [
                0.022853227332234383,
                1.8441377878189087,
                0.026101702824234962
            ]
        }
    ],
    "materials" : [
        {
            "doubleSided" : true,
            "emissiveFactor" : [
                0,
                0,
                0
            ],
            "name" : "Material",
            "pbrMetallicRoughness" : {
                "baseColorFactor" : [
                    0.10381883382797241,
                    0.004834257066249847,
                    0.0030327809508889914,
                    1
                ],
                "metallicFactor" : 0,
                "roughnessFactor" : 0.5
            }
        },
        {
            "doubleSided" : true,
            "emissiveFactor" : [
                0.10381878912448883,
                0,
                0
            ],
            "name" : "Cross",
            "pbrMetallicRoughness" : {}
        },
        {
            "doubleSided" : true,
            "emissiveFactor" : [
                0,
                0,
                0
            ],
            "name" : "Box",
            "pbrMetallicRoughness" : {
                "baseColorFactor" : [
                    0.16974185407161713,
                    0.16974185407161713,
                    0.16974185407161713,
                    1
                ],
                "metallicFactor" : 0,
                "roughnessFactor" : 0.5
            }
        },
        {
            "doubleSided" : true,
            "emissiveFactor" : [
                0,
                0,
                0
            ],
            "name" : "Material.001",
            "pbrMetallicRoughness" : {
                "baseColorFactor" : [
                    0.004324925597757101,
                    0.03239139914512634,
                    0.05221908167004585,
                    1
                ],
                "metallicFactor" : 0,
                "roughnessFactor" : 0.5
            }
        },
        {
            "doubleSided" : true,
            "emissiveFactor" : [
                0.021782832220196724,
                0.1743270307779312,
                0.24175690114498138
            ],
            "name" : "Material.002",
            "pbrMetallicRoughness" : {}
        }
    ],
    "meshes" : [
        {
            "name" : "Cube",
            "primitives" : [
                {
                    "attributes" : {
                        "POSITION" : 0,
                        "NORMAL" : 1,
                        "TEXCOORD_0" : 2
                    },
                    "indices" : 3,
                    "material" : 0
                }
            ]
        },
        {
            "name" : "Cube.001",
            "primitives" : [
                {
                    "attributes" : {
                        "POSITION" : 4,
                        "NORMAL" : 5,
                        "TEXCOORD_0" : 6
                    },
                    "indices" : 7,
                    "material" : 1
                }
            ]
        },
        {
            "name" : "Cube.002",
            "primitives" : [
                {
                    "attributes" : {
                        "POSITION" : 8,
                        "NORMAL" : 9,
                        "TEXCOORD_0" : 10
                    },
                    "indices" : 11,
                    "material" : 2
                }
            ]
        },
        {
            "name" : "Cube.004",
            "primitives" : [
                {
                    "attributes" : {
                        "POSITION" : 12,
                        "NORMAL" : 13,
                        "TEXCOORD_0" : 14
                    },
                    "indices" : 15,
                    "material" : 0
                }
            ]
        },
        {
            "name" : "Cube.005",
            "primitives" : [
                {
                    "attributes" : {
                        "POSITION" : 16,
                        "NORMAL" : 17,
                        "TEXCOORD_0" : 18
                    },
                    "indices" : 19,
                    "material" : 3
                }
            ]
        },
        {
            "name" : "Cube.006",
            "primitives" : [
                {
                    "attributes" : {
                        "POSITION" : 20,
                        "NORMAL" : 21,
                        "TEXCOORD_0" : 22
                    },
                    "indices" : 23,
                    "material" : 4
                }
            ]
        }
    ],
    "accessors" : [
        {
            "bufferView" : 0,
            "componentType" : 5126,
            "count" : 144,
            "max" : [
                1.4922236204147339,
                0.09556704014539719,
                1
            ],
            "min" : [
                -1.4922236204147339,
                -1,
                -1
            ],
            "type" : "VEC3"
        },
        {
            "bufferView" : 1,
            "componentType" : 5126,
            "count" : 144,
            "type" : "VEC3"
        },
        {
            "bufferView" : 2,
            "componentType" : 5126,
            "count" : 144,
            "type" : "VEC2"
        },
        {
            "bufferView" : 3,
            "componentType" : 5123,
            "count" : 264,
            "type" : "SCALAR"
        },
        {
            "bufferView" : 4,
            "componentType" : 5126,
            "count" : 76,
            "max" : [
                2.950106620788574,
                1,
                2.950106620788574
            ],
            "min" : [
                -2.950106620788574,
                0.005054950714111328,
                -2.950106620788574
            ],
            "type" : "VEC3"
        },
        {
            "bufferView" : 5,
            "componentType" : 5126,
            "count" : 76,
            "type" : "VEC3"
        },
        {
            "bufferView" : 6,
            "componentType" : 5126,
            "count" : 76,
            "type" : "VEC2"
        },
        {
            "bufferView" : 7,
            "componentType" : 5123,
            "count" : 132,
            "type" : "SCALAR"
        },
        {
            "bufferView" : 8,
            "componentType" : 5126,
            "count" : 137,
            "max" : [
                1,
                0.19543775916099548,
                1
            ],
            "min" : [
                -1,
                -1,
                -1
            ],
            "type" : "VEC3"
        },
        {
            "bufferView" : 9,
            "componentType" : 5126,
            "count" : 137,
            "type" : "VEC3"
        },
        {
            "bufferView" : 10,
            "componentType" : 5126,
            "count" : 137,
            "type" : "VEC2"
        },
        {
            "bufferView" : 11,
            "componentType" : 5123,
            "count" : 282,
            "type" : "SCALAR"
        },
        {
            "bufferView" : 12,
            "componentType" : 5126,
            "count" : 76,
            "max" : [
                1,
                0.19543775916099548,
                1
            ],
            "min" : [
                -1,
                0.09556704014539719,
                -1
            ],
            "type" : "VEC3"
        },
        {
            "bufferView" : 13,
            "componentType" : 5126,
            "count" : 76,
            "type" : "VEC3"
        },
        {
            "bufferView" : 14,
            "componentType" : 5126,
            "count" : 76,
            "type" : "VEC2"
        },
        {
            "bufferView" : 15,
            "componentType" : 5123,
            "count" : 114,
            "type" : "SCALAR"
        },
        {
            "bufferView" : 16,
            "componentType" : 5126,
            "count" : 80,
            "max" : [
                0.8456302881240845,
                -0.058802686631679535,
                1.1715362071990967
            ],
            "min" : [
                -0.8456302881240845,
                -0.8456302881240845,
                -1.1715362071990967
            ],
            "type" : "VEC3"
        },
        {
            "bufferView" : 17,
            "componentType" : 5126,
            "count" : 80,
            "type" : "VEC3"
        },
        {
            "bufferView" : 18,
            "componentType" : 5126,
            "count" : 80,
            "type" : "VEC2"
        },
        {
            "bufferView" : 19,
            "componentType" : 5123,
            "count" : 132,
            "type" : "SCALAR"
        },
        {
            "bufferView" : 20,
            "componentType" : 5126,
            "count" : 8,
            "max" : [
                1.3580180406570435,
                -0.3411893844604492,
                0.7007587552070618
            ],
            "min" : [
                -1.3580180406570435,
                -0.3411893844604492,
                -0.7007587552070618
            ],
            "type" : "VEC3"
        },
        {
            "bufferView" : 21,
            "componentType" : 5126,
            "count" : 8,
            "type" : "VEC3"
        },
        {
            "bufferView" : 22,
            "componentType" : 5126,
            "count" : 8,
            "type" : "VEC2"
        },
        {
            "bufferView" : 23,
            "componentType" : 5123,
            "count" : 12,
            "type" : "SCALAR"
        }
    ],
    "bufferViews" : [
        {
            "buffer" : 0,
            "byteLength" : 1728,
            "byteOffset" : 0
        },
        {
            "buffer" : 0,
            "byteLength" : 1728,
            "byteOffset" : 1728
        },
        {
            "buffer" : 0,
            "byteLength" : 1152,
            "byteOffset" : 3456
        },
        {
            "buffer" : 0,
            "byteLength" : 528,
            "byteOffset" : 4608
        },
        {
            "buffer" : 0,
            "byteLength" : 912,
            "byteOffset" : 5136
        },
        {
            "buffer" : 0,
            "byteLength" : 912,
            "byteOffset" : 6048
        },
        {
            "buffer" : 0,
            "byteLength" : 608,
            "byteOffset" : 6960
        },
        {
            "buffer" : 0,
            "byteLength" : 264,
            "byteOffset" : 7568
        },
        {
            "buffer" : 0,
            "byteLength" : 1644,
            "byteOffset" : 7832
        },
        {
            "buffer" : 0,
            "byteLength" : 1644,
            "byteOffset" : 9476
        },
        {
            "buffer" : 0,
            "byteLength" : 1096,
            "byteOffset" : 11120
        },
        {
            "buffer" : 0,
            "byteLength" : 564,
            "byteOffset" : 12216
        },
        {
            "buffer" : 0,
            "byteLength" : 912,
            "byteOffset" : 12780
        },
        {
            "buffer" : 0,
            "byteLength" : 912,
            "byteOffset" : 13692
        },
        {
            "buffer" : 0,
            "byteLength" : 608,
            "byteOffset" : 14604
        },
        {
            "buffer" : 0,
            "byteLength" : 228,
            "byteOffset" : 15212
        },
        {
            "buffer" : 0,
            "byteLength" : 960,
            "byteOffset" : 15440
        },
        {
            "buffer" : 0,
            "byteLength" : 960,
            "byteOffset" : 16400
        },
        {
            "buffer" : 0,
            "byteLength" : 640,
            "byteOffset" : 17360
        },
        {
            "buffer" : 0,
            "byteLength" : 264,
            "byteOffset" : 18000
        },
        {
            "buffer" : 0,
            "byteLength" : 96,
            "byteOffset" : 18264
        },
        {
            "buffer" : 0,
            "byteLength" : 96,
            "byteOffset" : 18360
        },
        {
            "buffer" : 0,
            "byteLength" : 64,
            "byteOffset" : 18456
        },
        {
            "buffer" : 0,
            "byteLength" : 24,
            "byteOffset" : 18520
        }
    ],
    "buffers" : [
        {
            "byteLength" : 18544,
            "uri" : "data:application/octet-stream;base64,"
        }
    ]
}
