{
    "asset" : {
        "generator" : "Khronos glTF Blender I/O v1.5.17",
        "version" : "2.0"
    },
    "scene" : 0,
    "scenes" : [
        {
            "name" : "Scene",
            "nodes" : [
                0,
                1,
                2,
                3,
                4,
                5
            ]
        }
    ],
    "nodes" : [
        {
            "name" : "Light",
            "rotation" : [
                0.16907575726509094,
                0.7558803558349609,
                -0.27217137813568115,
                0.570947527885437
            ],
            "translation" : [
                4.076245307922363,
                5.903861999511719,
                -1.0054539442062378
            ]
        },
        {
            "name" : "Camera",
            "rotation" : [
                0.483536034822464,
                0.33687159419059753,
                -0.20870360732078552,
                0.7804827094078064
            ],
            "translation" : [
                7.358891487121582,
                4.958309173583984,
                6.925790786743164
            ]
        },
        {
            "mesh" : 0,
            "name" : "Cube",
            "scale" : [
                1.412005066871643,
                -0.1646203249692917,
                0.9910617470741272
            ]
        },
        {
            "mesh" : 1,
            "name" : "Plane",
            "scale" : [
                13.972658157348633,
                1,
                1
            ],
            "translation" : [
                0,
                -0.015821175649762154,
                -0.10999998450279236
            ]
        },
        {
            "mesh" : 2,
            "name" : "Plane.001",
            "scale" : [
                -2.4047915935516357,
                1,
                4.309764385223389
            ],
            "translation" : [
                -0.19702933728694916,
                0.02888026461005211,
                0.06434420496225357
            ]
        },
        {
            "mesh" : 3,
            "name" : "Text",
            "rotation" : [
                0,
                0.01370023749768734,
                0,
                0.9999062418937683
            ],
            "scale" : [
                0.6432033777236938,
                0.6432033777236938,
                0.6432033777236938
            ],
            "translation" : [
                0.0427558571100235,
                0.045760057866573334,
                0.014726445078849792
            ]
        }
    ],
    "materials" : [
        {
            "doubleSided" : true,
            "name" : "Material",
            "pbrMetallicRoughness" : {
                "baseColorFactor" : [
                    0.05722779780626297,
                    0.05181558057665825,
                    0.05780357867479324,
                    1
                ],
                "metallicFactor" : 0,
                "roughnessFactor" : 0.4000000059604645
            }
        },
        {
            "doubleSided" : true,
            "name" : "Material.001",
            "pbrMetallicRoughness" : {
                "baseColorFactor" : [
                    0.10381878912448883,
                    0.05712290108203888,
                    0.00018959312001243234,
                    1
                ],
                "metallicFactor" : 0,
                "roughnessFactor" : 0.5
            }
        },
        {
            "doubleSided" : true,
            "name" : "Material.002",
            "pbrMetallicRoughness" : {
                "baseColorFactor" : [
                    0.0020636485423892736,
                    0.0020636485423892736,
                    0.0020636485423892736,
                    1
                ],
                "metallicFactor" : 0,
                "roughnessFactor" : 0.5
            }
        }
    ],
    "meshes" : [
        {
            "name" : "Cube.001",
            "primitives" : [
                {
                    "attributes" : {
                        "POSITION" : 0,
                        "NORMAL" : 1,
                        "TEXCOORD_0" : 2
                    },
                    "indices" : 3,
                    "material" : 0
                }
            ]
        },
        {
            "name" : "Plane",
            "primitives" : [
                {
                    "attributes" : {
                        "POSITION" : 4,
                        "NORMAL" : 5,
                        "TEXCOORD_0" : 6
                    },
                    "indices" : 7,
                    "material" : 1
                }
            ]
        },
        {
            "name" : "Plane.001",
            "primitives" : [
                {
                    "attributes" : {
                        "POSITION" : 8,
                        "NORMAL" : 9,
                        "TEXCOORD_0" : 10
                    },
                    "indices" : 7,
                    "material" : 2
                }
            ]
        },
        {
            "name" : "Text",
            "primitives" : [
                {
                    "attributes" : {
                        "POSITION" : 11,
                        "NORMAL" : 12,
                        "TEXCOORD_0" : 13
                    },
                    "indices" : 14,
                    "material" : 1
                }
            ]
        }
    ],
    "accessors" : [
        {
            "bufferView" : 0,
            "componentType" : 5126,
            "count" : 1004,
            "max" : [
                0.25,
                0.25,
                0.25
            ],
            "min" : [
                -0.25,
                -0.25,
                -0.25
            ],
            "type" : "VEC3"
        },
        {
            "bufferView" : 1,
            "componentType" : 5126,
            "count" : 1004,
            "type" : "VEC3"
        },
        {
            "bufferView" : 2,
            "componentType" : 5126,
            "count" : 1004,
            "type" : "VEC2"
        },
        {
            "bufferView" : 3,
            "componentType" : 5123,
            "count" : 1548,
            "type" : "SCALAR"
        },
        {
            "bufferView" : 4,
            "componentType" : 5126,
            "count" : 4,
            "max" : [
                0.02500000037252903,
                0,
                0.02500000037252903
            ],
            "min" : [
                -0.02500000037252903,
                0,
                -0.02500000037252903
            ],
            "type" : "VEC3"
        },
        {
            "bufferView" : 5,
            "componentType" : 5126,
            "count" : 4,
            "type" : "VEC3"
        },
        {
            "bufferView" : 6,
            "componentType" : 5126,
            "count" : 4,
            "type" : "VEC2"
        },
        {
            "bufferView" : 7,
            "componentType" : 5123,
            "count" : 6,
            "type" : "SCALAR"
        },
        {
            "bufferView" : 8,
            "componentType" : 5126,
            "count" : 4,
            "max" : [
                0.02500000037252903,
                0,
                0.02500000037252903
            ],
            "min" : [
                -0.02500000037252903,
                0,
                -0.02500000037252903
            ],
            "type" : "VEC3"
        },
        {
            "bufferView" : 9,
            "componentType" : 5126,
            "count" : 4,
            "type" : "VEC3"
        },
        {
            "bufferView" : 10,
            "componentType" : 5126,
            "count" : 4,
            "type" : "VEC2"
        },
        {
            "bufferView" : 11,
            "componentType" : 5126,
            "count" : 581,
            "max" : [
                0.43549999594688416,
                0,
                0.0009000000427477062
            ],
            "min" : [
                0.007300000637769699,
                0,
                -0.06910000741481781
            ],
            "type" : "VEC3"
        },
        {
            "bufferView" : 12,
            "componentType" : 5126,
            "count" : 581,
            "type" : "VEC3"
        },
        {
            "bufferView" : 13,
            "componentType" : 5126,
            "count" : 581,
            "type" : "VEC2"
        },
        {
            "bufferView" : 14,
            "componentType" : 5123,
            "count" : 1269,
            "type" : "SCALAR"
        }
    ],
    "bufferViews" : [
        {
            "buffer" : 0,
            "byteLength" : 12048,
            "byteOffset" : 0
        },
        {
            "buffer" : 0,
            "byteLength" : 12048,
            "byteOffset" : 12048
        },
        {
            "buffer" : 0,
            "byteLength" : 8032,
            "byteOffset" : 24096
        },
        {
            "buffer" : 0,
            "byteLength" : 3096,
            "byteOffset" : 32128
        },
        {
            "buffer" : 0,
            "byteLength" : 48,
            "byteOffset" : 35224
        },
        {
            "buffer" : 0,
            "byteLength" : 48,
            "byteOffset" : 35272
        },
        {
            "buffer" : 0,
            "byteLength" : 32,
            "byteOffset" : 35320
        },
        {
            "buffer" : 0,
            "byteLength" : 12,
            "byteOffset" : 35352
        },
        {
            "buffer" : 0,
            "byteLength" : 48,
            "byteOffset" : 35364
        },
        {
            "buffer" : 0,
            "byteLength" : 48,
            "byteOffset" : 35412
        },
        {
            "buffer" : 0,
            "byteLength" : 32,
            "byteOffset" : 35460
        },
        {
            "buffer" : 0,
            "byteLength" : 6972,
            "byteOffset" : 35492
        },
        {
            "buffer" : 0,
            "byteLength" : 6972,
            "byteOffset" : 42464
        },
        {
            "buffer" : 0,
            "byteLength" : 4648,
            "byteOffset" : 49436
        },
        {
            "buffer" : 0,
            "byteLength" : 2538,
            "byteOffset" : 54084
        }
    ],
    "buffers" : [
        {
            "byteLength" : 56624,
            "uri" : "data:application/octet-stream;base64,"
        }
    ]
}
