{
    "asset" : {
        "generator" : "Khronos glTF Blender I/O v1.2.75",
        "version" : "2.0"
    },
    "scene" : 0,
    "scenes" : [
        {
            "name" : "Scene",
            "nodes" : [
                0,
                1,
                2,
                3,
                4,
                5,
                6,
                7,
                8,
                9
            ]
        }
    ],
    "nodes" : [
        {
            "name" : "Light",
            "rotation" : [
                0.16907575726509094,
                0.7558803558349609,
                -0.27217137813568115,
                0.570947527885437
            ],
            "translation" : [
                0.31127500534057617,
                4.752651214599609,
                -2.604330539703369
            ]
        },
        {
            "name" : "Camera",
            "rotation" : [
                0.19129858911037445,
                0.8009779453277588,
                -0.4583474099636078,
                0.33430057764053345
            ],
            "translation" : [
                3.35188627243042,
                2.696498155593872,
                -3.278857707977295
            ]
        },
        {
            "mesh" : 0,
            "name" : "Cube",
            "scale" : [
                0.34999996423721313,
                0.10000000149011612,
                0.4500000476837158
            ],
            "translation" : [
                0.29999998211860657,
                0.8899997472763062,
                -0.4499998390674591
            ]
        },
        {
            "mesh" : 1,
            "name" : "Cube.001",
            "rotation" : [
                0,
                0,
                0.2288266271352768,
                0.9734671711921692
            ],
            "scale" : [
                0.029999999329447746,
                0.5,
                0.029999999329447746
            ],
            "translation" : [
                0.3690571188926697,
                0.46000003814697266,
                0
            ]
        },
        {
            "mesh" : 2,
            "name" : "Cube.002",
            "rotation" : [
                0,
                0,
                0.2288266271352768,
                0.9734671711921692
            ],
            "scale" : [
                0.029999999329447746,
                0.5,
                0.029999999329447746
            ],
            "translation" : [
                0.3690571188926697,
                0.46000003814697266,
                -0.8957003951072693
            ]
        },
        {
            "mesh" : 3,
            "name" : "Cube.003",
            "rotation" : [
                0,
                0,
                0.22920039296150208,
                0.9733792543411255
            ],
            "scale" : [
                0.029999999329447746,
                0.029999999329447746,
                0.46999984979629517
            ],
            "translation" : [
                0.479999840259552,
                0.24000002443790436,
                -0.4499998390674591
            ]
        },
        {
            "mesh" : 4,
            "name" : "Cube.004",
            "scale" : [
                0.029999999329447746,
                0.029999999329447746,
                0.479999840259552
            ],
            "translation" : [
                0,
                0.029999999329447746,
                -0.4499998390674591
            ]
        },
        {
            "mesh" : 5,
            "name" : "Cube.005",
            "scale" : [
                0.31999996304512024,
                0.029999999329447746,
                0.029999999329447746
            ],
            "translation" : [
                0.29999998211860657,
                0.029999999329447746,
                0
            ]
        },
        {
            "mesh" : 6,
            "name" : "Cube.006",
            "scale" : [
                0.31999996304512024,
                0.029999999329447746,
                0.029999999329447746
            ],
            "translation" : [
                0.29999998211860657,
                0.029999999329447746,
                -0.8974999785423279
            ]
        },
        {
            "mesh" : 7,
            "name" : "Cube.007",
            "scale" : [
                0.019999999552965164,
                0.019999999552965164,
                0.46999984979629517
            ],
            "translation" : [
                0.479999840259552,
                0.029999999329447746,
                -0.4499998390674591
            ]
        }
    ],
    "materials" : [
        {
            "doubleSided" : true,
            "name" : "Material.001",
            "pbrMetallicRoughness" : {}
        },
        {
            "doubleSided" : true,
            "emissiveFactor" : [
                0,
                0,
                0
            ],
            "name" : "Metal",
            "pbrMetallicRoughness" : {
                "baseColorFactor" : [
                    0.27383169531822205,
                    0.27383169531822205,
                    0.27383169531822205,
                    1
                ],
                "metallicFactor" : 1,
                "roughnessFactor" : 0.1764705777168274
            }
        }
    ],
    "meshes" : [
        {
            "name" : "Cube.001",
            "primitives" : [
                {
                    "attributes" : {
                        "POSITION" : 0,
                        "NORMAL" : 1,
                        "TEXCOORD_0" : 2
                    },
                    "indices" : 3,
                    "material" : 0
                }
            ]
        },
        {
            "name" : "Cube.002",
            "primitives" : [
                {
                    "attributes" : {
                        "POSITION" : 4,
                        "NORMAL" : 5,
                        "TEXCOORD_0" : 6
                    },
                    "indices" : 7,
                    "material" : 1
                }
            ]
        },
        {
            "name" : "Cube.003",
            "primitives" : [
                {
                    "attributes" : {
                        "POSITION" : 8,
                        "NORMAL" : 9,
                        "TEXCOORD_0" : 10
                    },
                    "indices" : 7,
                    "material" : 1
                }
            ]
        },
        {
            "name" : "Cube.004",
            "primitives" : [
                {
                    "attributes" : {
                        "POSITION" : 11,
                        "NORMAL" : 12,
                        "TEXCOORD_0" : 13
                    },
                    "indices" : 7,
                    "material" : 1
                }
            ]
        },
        {
            "name" : "Cube.005",
            "primitives" : [
                {
                    "attributes" : {
                        "POSITION" : 14,
                        "NORMAL" : 15,
                        "TEXCOORD_0" : 16
                    },
                    "indices" : 7,
                    "material" : 1
                }
            ]
        },
        {
            "name" : "Cube.006",
            "primitives" : [
                {
                    "attributes" : {
                        "POSITION" : 17,
                        "NORMAL" : 18,
                        "TEXCOORD_0" : 19
                    },
                    "indices" : 7,
                    "material" : 1
                }
            ]
        },
        {
            "name" : "Cube.007",
            "primitives" : [
                {
                    "attributes" : {
                        "POSITION" : 20,
                        "NORMAL" : 21,
                        "TEXCOORD_0" : 22
                    },
                    "indices" : 7,
                    "material" : 1
                }
            ]
        },
        {
            "name" : "Cube.008",
            "primitives" : [
                {
                    "attributes" : {
                        "POSITION" : 23,
                        "NORMAL" : 24,
                        "TEXCOORD_0" : 25
                    },
                    "indices" : 7,
                    "material" : 1
                }
            ]
        }
    ],
    "accessors" : [
        {
            "bufferView" : 0,
            "componentType" : 5126,
            "count" : 10584,
            "max" : [
                1,
                1,
                1
            ],
            "min" : [
                -1,
                -1,
                -1
            ],
            "type" : "VEC3"
        },
        {
            "bufferView" : 1,
            "componentType" : 5126,
            "count" : 10584,
            "type" : "VEC3"
        },
        {
            "bufferView" : 2,
            "componentType" : 5126,
            "count" : 10584,
            "type" : "VEC2"
        },
        {
            "bufferView" : 3,
            "componentType" : 5123,
            "count" : 15876,
            "type" : "SCALAR"
        },
        {
            "bufferView" : 4,
            "componentType" : 5126,
            "count" : 24,
            "max" : [
                1,
                1,
                1
            ],
            "min" : [
                -1,
                -1,
                -1
            ],
            "type" : "VEC3"
        },
        {
            "bufferView" : 5,
            "componentType" : 5126,
            "count" : 24,
            "type" : "VEC3"
        },
        {
            "bufferView" : 6,
            "componentType" : 5126,
            "count" : 24,
            "type" : "VEC2"
        },
        {
            "bufferView" : 7,
            "componentType" : 5123,
            "count" : 36,
            "type" : "SCALAR"
        },
        {
            "bufferView" : 8,
            "componentType" : 5126,
            "count" : 24,
            "max" : [
                1,
                1,
                1
            ],
            "min" : [
                -1,
                -1,
                -1
            ],
            "type" : "VEC3"
        },
        {
            "bufferView" : 9,
            "componentType" : 5126,
            "count" : 24,
            "type" : "VEC3"
        },
        {
            "bufferView" : 10,
            "componentType" : 5126,
            "count" : 24,
            "type" : "VEC2"
        },
        {
            "bufferView" : 11,
            "componentType" : 5126,
            "count" : 24,
            "max" : [
                1,
                1,
                1
            ],
            "min" : [
                -1,
                -1,
                -1
            ],
            "type" : "VEC3"
        },
        {
            "bufferView" : 12,
            "componentType" : 5126,
            "count" : 24,
            "type" : "VEC3"
        },
        {
            "bufferView" : 13,
            "componentType" : 5126,
            "count" : 24,
            "type" : "VEC2"
        },
        {
            "bufferView" : 14,
            "componentType" : 5126,
            "count" : 24,
            "max" : [
                1,
                1,
                1
            ],
            "min" : [
                -1,
                -1,
                -1
            ],
            "type" : "VEC3"
        },
        {
            "bufferView" : 15,
            "componentType" : 5126,
            "count" : 24,
            "type" : "VEC3"
        },
        {
            "bufferView" : 16,
            "componentType" : 5126,
            "count" : 24,
            "type" : "VEC2"
        },
        {
            "bufferView" : 17,
            "componentType" : 5126,
            "count" : 24,
            "max" : [
                1,
                1,
                1
            ],
            "min" : [
                -1,
                -1,
                -1
            ],
            "type" : "VEC3"
        },
        {
            "bufferView" : 18,
            "componentType" : 5126,
            "count" : 24,
            "type" : "VEC3"
        },
        {
            "bufferView" : 19,
            "componentType" : 5126,
            "count" : 24,
            "type" : "VEC2"
        },
        {
            "bufferView" : 20,
            "componentType" : 5126,
            "count" : 24,
            "max" : [
                1,
                1,
                1
            ],
            "min" : [
                -1,
                -1,
                -1
            ],
            "type" : "VEC3"
        },
        {
            "bufferView" : 21,
            "componentType" : 5126,
            "count" : 24,
            "type" : "VEC3"
        },
        {
            "bufferView" : 22,
            "componentType" : 5126,
            "count" : 24,
            "type" : "VEC2"
        },
        {
            "bufferView" : 23,
            "componentType" : 5126,
            "count" : 24,
            "max" : [
                1,
                1,
                1
            ],
            "min" : [
                -1,
                -1,
                -1
            ],
            "type" : "VEC3"
        },
        {
            "bufferView" : 24,
            "componentType" : 5126,
            "count" : 24,
            "type" : "VEC3"
        },
        {
            "bufferView" : 25,
            "componentType" : 5126,
            "count" : 24,
            "type" : "VEC2"
        }
    ],
    "bufferViews" : [
        {
            "buffer" : 0,
            "byteLength" : 127008,
            "byteOffset" : 0
        },
        {
            "buffer" : 0,
            "byteLength" : 127008,
            "byteOffset" : 127008
        },
        {
            "buffer" : 0,
            "byteLength" : 84672,
            "byteOffset" : 254016
        },
        {
            "buffer" : 0,
            "byteLength" : 31752,
            "byteOffset" : 338688
        },
        {
            "buffer" : 0,
            "byteLength" : 288,
            "byteOffset" : 370440
        },
        {
            "buffer" : 0,
            "byteLength" : 288,
            "byteOffset" : 370728
        },
        {
            "buffer" : 0,
            "byteLength" : 192,
            "byteOffset" : 371016
        },
        {
            "buffer" : 0,
            "byteLength" : 72,
            "byteOffset" : 371208
        },
        {
            "buffer" : 0,
            "byteLength" : 288,
            "byteOffset" : 371280
        },
        {
            "buffer" : 0,
            "byteLength" : 288,
            "byteOffset" : 371568
        },
        {
            "buffer" : 0,
            "byteLength" : 192,
            "byteOffset" : 371856
        },
        {
            "buffer" : 0,
            "byteLength" : 288,
            "byteOffset" : 372048
        },
        {
            "buffer" : 0,
            "byteLength" : 288,
            "byteOffset" : 372336
        },
        {
            "buffer" : 0,
            "byteLength" : 192,
            "byteOffset" : 372624
        },
        {
            "buffer" : 0,
            "byteLength" : 288,
            "byteOffset" : 372816
        },
        {
            "buffer" : 0,
            "byteLength" : 288,
            "byteOffset" : 373104
        },
        {
            "buffer" : 0,
            "byteLength" : 192,
            "byteOffset" : 373392
        },
        {
            "buffer" : 0,
            "byteLength" : 288,
            "byteOffset" : 373584
        },
        {
            "buffer" : 0,
            "byteLength" : 288,
            "byteOffset" : 373872
        },
        {
            "buffer" : 0,
            "byteLength" : 192,
            "byteOffset" : 374160
        },
        {
            "buffer" : 0,
            "byteLength" : 288,
            "byteOffset" : 374352
        },
        {
            "buffer" : 0,
            "byteLength" : 288,
            "byteOffset" : 374640
        },
        {
            "buffer" : 0,
            "byteLength" : 192,
            "byteOffset" : 374928
        },
        {
            "buffer" : 0,
            "byteLength" : 288,
            "byteOffset" : 375120
        },
        {
            "buffer" : 0,
            "byteLength" : 288,
            "byteOffset" : 375408
        },
        {
            "buffer" : 0,
            "byteLength" : 192,
            "byteOffset" : 375696
        }
    ],
    "buffers" : [
        {
            "byteLength" : 375888,
            "uri" : "data:application/octet-stream;base64,"
        }
    ]
}
