{
    "asset" : {
        "generator" : "Khronos glTF Blender I/O v1.2.75",
        "version" : "2.0"
    },
    "scene" : 0,
    "scenes" : [
        {
            "name" : "Scene",
            "nodes" : [
                0,
                1,
                2,
                3,
                4
            ]
        }
    ],
    "nodes" : [
        {
            "mesh" : 0,
            "name" : "Cube",
            "scale" : [
                0.21639904379844666,
                0.3434132933616638,
                0.35680729150772095
            ],
            "translation" : [
                0,
                0.7438044548034668,
                0
            ]
        },
        {
            "mesh" : 1,
            "name" : "Cylinder",
            "rotation" : [
                0.7071067690849304,
                0,
                0,
                0.7071067690849304
            ],
            "scale" : [
                0.0890662744641304,
                0.3837662637233734,
                0.0890662744641304
            ],
            "translation" : [
                0,
                0.7438044548034668,
                0.400422602891922
            ]
        },
        {
            "mesh" : 2,
            "name" : "Sphere",
            "scale" : [
                0.592319905757904,
                0.592319905757904,
                0.592319905757904
            ]
        },
        {
            "name" : "Camera",
            "rotation" : [
                0.45928266644477844,
                0.4207518398761749,
                -0.28855669498443604,
                0.7271605134010315
            ],
            "translation" : [
                4.741322994232178,
                2.6478357315063477,
                2.607907295227051
            ]
        },
        {
            "name" : "Sun",
            "rotation" : [
                0.24666477739810944,
                -0.054326049983501434,
                -0.5015061497688293,
                0.8274640440940857
            ],
            "translation" : [
                4.591479301452637,
                2.710503339767456,
                2.836026906967163
            ]
        }
    ],
    "materials" : [
        {
            "doubleSided" : true,
            "emissiveFactor" : [
                0,
                0,
                0
            ],
            "name" : "Handle",
            "pbrMetallicRoughness" : {
                "baseColorFactor" : [
                    0.03591306135058403,
                    0.015870625153183937,
                    0.008549806661903858,
                    1
                ],
                "metallicFactor" : 0.7285714149475098,
                "roughnessFactor" : 0.30000001192092896
            }
        },
        {
            "doubleSided" : true,
            "emissiveFactor" : [
                0,
                0,
                0
            ],
            "name" : "Barrel",
            "pbrMetallicRoughness" : {
                "baseColorFactor" : [
                    0.03450509160757065,
                    0.03450509160757065,
                    0.03450509160757065,
                    1
                ],
                "metallicFactor" : 1,
                "roughnessFactor" : 0.5
            }
        },
        {
            "doubleSided" : true,
            "emissiveFactor" : [
                0,
                0,
                0
            ],
            "name" : "Ball",
            "pbrMetallicRoughness" : {
                "baseColorFactor" : [
                    0.0019452868727967143,
                    0.010178723372519016,
                    0.004761777818202972,
                    1
                ],
                "metallicFactor" : 0.6761904954910278,
                "roughnessFactor" : 0.6190476417541504
            }
        }
    ],
    "meshes" : [
        {
            "name" : "Cube.001",
            "primitives" : [
                {
                    "attributes" : {
                        "POSITION" : 0,
                        "NORMAL" : 1,
                        "TEXCOORD_0" : 2
                    },
                    "indices" : 3,
                    "material" : 0
                }
            ]
        },
        {
            "name" : "Cylinder",
            "primitives" : [
                {
                    "attributes" : {
                        "POSITION" : 4,
                        "NORMAL" : 5,
                        "TEXCOORD_0" : 6
                    },
                    "indices" : 7,
                    "material" : 1
                }
            ]
        },
        {
            "name" : "Sphere",
            "primitives" : [
                {
                    "attributes" : {
                        "POSITION" : 8,
                        "NORMAL" : 9,
                        "TEXCOORD_0" : 10
                    },
                    "indices" : 11,
                    "material" : 2
                }
            ]
        }
    ],
    "accessors" : [
        {
            "bufferView" : 0,
            "componentType" : 5126,
            "count" : 818,
            "max" : [
                0.7767106890678406,
                0.3506165146827698,
                1
            ],
            "min" : [
                -0.7767106890678406,
                -0.5,
                -1
            ],
            "type" : "VEC3"
        },
        {
            "bufferView" : 1,
            "componentType" : 5126,
            "count" : 818,
            "type" : "VEC3"
        },
        {
            "bufferView" : 2,
            "componentType" : 5126,
            "count" : 818,
            "type" : "VEC2"
        },
        {
            "bufferView" : 3,
            "componentType" : 5123,
            "count" : 1836,
            "type" : "SCALAR"
        },
        {
            "bufferView" : 4,
            "componentType" : 5126,
            "count" : 1354,
            "max" : [
                0.9510565400123596,
                0.9828345775604248,
                1
            ],
            "min" : [
                -0.9510564804077148,
                -1,
                -1
            ],
            "type" : "VEC3"
        },
        {
            "bufferView" : 5,
            "componentType" : 5126,
            "count" : 1354,
            "type" : "VEC3"
        },
        {
            "bufferView" : 6,
            "componentType" : 5126,
            "count" : 1354,
            "type" : "VEC2"
        },
        {
            "bufferView" : 7,
            "componentType" : 5123,
            "count" : 2088,
            "type" : "SCALAR"
        },
        {
            "bufferView" : 8,
            "componentType" : 5126,
            "count" : 559,
            "max" : [
                1.000000238418579,
                1,
                1.0000003576278687
            ],
            "min" : [
                -0.9999998211860657,
                -1,
                -1
            ],
            "type" : "VEC3"
        },
        {
            "bufferView" : 9,
            "componentType" : 5126,
            "count" : 559,
            "type" : "VEC3"
        },
        {
            "bufferView" : 10,
            "componentType" : 5126,
            "count" : 559,
            "type" : "VEC2"
        },
        {
            "bufferView" : 11,
            "componentType" : 5123,
            "count" : 2880,
            "type" : "SCALAR"
        }
    ],
    "bufferViews" : [
        {
            "buffer" : 0,
            "byteLength" : 9816,
            "byteOffset" : 0
        },
        {
            "buffer" : 0,
            "byteLength" : 9816,
            "byteOffset" : 9816
        },
        {
            "buffer" : 0,
            "byteLength" : 6544,
            "byteOffset" : 19632
        },
        {
            "buffer" : 0,
            "byteLength" : 3672,
            "byteOffset" : 26176
        },
        {
            "buffer" : 0,
            "byteLength" : 16248,
            "byteOffset" : 29848
        },
        {
            "buffer" : 0,
            "byteLength" : 16248,
            "byteOffset" : 46096
        },
        {
            "buffer" : 0,
            "byteLength" : 10832,
            "byteOffset" : 62344
        },
        {
            "buffer" : 0,
            "byteLength" : 4176,
            "byteOffset" : 73176
        },
        {
            "buffer" : 0,
            "byteLength" : 6708,
            "byteOffset" : 77352
        },
        {
            "buffer" : 0,
            "byteLength" : 6708,
            "byteOffset" : 84060
        },
        {
            "buffer" : 0,
            "byteLength" : 4472,
            "byteOffset" : 90768
        },
        {
            "buffer" : 0,
            "byteLength" : 5760,
            "byteOffset" : 95240
        }
    ],
    "buffers" : [
        {
            "byteLength" : 101000,
            "uri" : "data:application/octet-stream;base64,"
        }
    ]
}
