{
    "asset" : {
        "generator" : "Khronos glTF Blender I/O v1.2.75",
        "version" : "2.0"
    },
    "scene" : 0,
    "scenes" : [
        {
            "name" : "Scene",
            "nodes" : [
                0,
                1,
                2,
                3,
                4,
                5,
                6,
                7,
                8,
                9,
                10,
                11,
                12,
                13
            ]
        }
    ],
    "nodes" : [
        {
            "name" : "Light",
            "rotation" : [
                0.004898702260106802,
                0.8239414691925049,
                -0.16355003416538239,
                0.5425383448600769
            ],
            "translation" : [
                2.6459012031555176,
                2.832667112350464,
                -3.5326318740844727
            ]
        },
        {
            "name" : "Camera",
            "rotation" : [
                0.4969112277030945,
                0.42308667302131653,
                -0.30267342925071716,
                0.6945974826812744
            ],
            "translation" : [
                5.097731113433838,
                2.734138250350952,
                0.020890474319458008
            ]
        },
        {
            "mesh" : 0,
            "name" : "Cube",
            "scale" : [
                0.15000000596046448,
                0.040000006556510925,
                0.05000000447034836
            ],
            "translation" : [
                1,
                1,
                -1
            ]
        },
        {
            "mesh" : 1,
            "name" : "Cylinder",
            "rotation" : [
                0.7071067690849304,
                0,
                0,
                0.7071067690849304
            ],
            "scale" : [
                0.07000000029802322,
                0.06000000238418579,
                0.07000000029802322
            ],
            "translation" : [
                0.8000001907348633,
                1,
                -1
            ]
        },
        {
            "mesh" : 2,
            "name" : "Cylinder.001",
            "rotation" : [
                0.7071067690849304,
                0,
                0,
                0.7071067690849304
            ],
            "scale" : [
                0.07000000029802322,
                0.06000000238418579,
                0.07000000029802322
            ],
            "translation" : [
                1.2000000476837158,
                1,
                -1
            ]
        },
        {
            "mesh" : 3,
            "name" : "Cube.002",
            "scale" : [
                0.029999999329447746,
                0.029999999329447746,
                0.12999999523162842
            ],
            "translation" : [
                1,
                1,
                -2.25
            ]
        },
        {
            "mesh" : 4,
            "name" : "Cube.001",
            "scale" : [
                0.15000000596046448,
                0.040000006556510925,
                0.05000000447034836
            ],
            "translation" : [
                1,
                1,
                -3.5
            ]
        },
        {
            "mesh" : 5,
            "name" : "Cylinder.002",
            "rotation" : [
                0.7071067690849304,
                0,
                0,
                0.7071067690849304
            ],
            "scale" : [
                0.07000000029802322,
                0.06000000238418579,
                0.07000000029802322
            ],
            "translation" : [
                0.8000001907348633,
                1,
                -3.5
            ]
        },
        {
            "mesh" : 6,
            "name" : "Cylinder.003",
            "rotation" : [
                0.7071067690849304,
                0,
                0,
                0.7071067690849304
            ],
            "scale" : [
                0.07000000029802322,
                0.06000000238418579,
                0.07000000029802322
            ],
            "translation" : [
                1.2000000476837158,
                1,
                -3.5
            ]
        },
        {
            "mesh" : 7,
            "name" : "Cylinder.004",
            "rotation" : [
                0.7071067690849304,
                0,
                0,
                0.7071067690849304
            ],
            "scale" : [
                0.029999999329447746,
                1.25,
                0.029999999329447746
            ],
            "translation" : [
                1,
                1,
                -2.2599997520446777
            ]
        },
        {
            "mesh" : 8,
            "name" : "Cylinder.005",
            "rotation" : [
                0.7071067690849304,
                0,
                0,
                0.7071067690849304
            ],
            "scale" : [
                0.06999999284744263,
                1.25,
                0.06999999284744263
            ],
            "translation" : [
                1.2000000476837158,
                1,
                -2.2300000190734863
            ]
        },
        {
            "name" : "Surface",
            "rotation" : [
                0.7071067690849304,
                0,
                0,
                0.7071067690849304
            ],
            "scale" : [
                0.04999999701976776,
                1.2299998998641968,
                0.04999999701976776
            ],
            "translation" : [
                1.2000000476837158,
                1,
                -2.239999771118164
            ]
        },
        {
            "mesh" : 9,
            "name" : "Cylinder.006",
            "rotation" : [
                0.7071067690849304,
                0,
                0,
                0.7071067690849304
            ],
            "scale" : [
                0.06999999284744263,
                1.25,
                0.06999999284744263
            ],
            "translation" : [
                0.800000011920929,
                1,
                -2.2300000190734863
            ]
        },
        {
            "name" : "Surface.002",
            "rotation" : [
                0.7071067690849304,
                0,
                0,
                0.7071067690849304
            ],
            "scale" : [
                0.04999999701976776,
                1.2299998998641968,
                0.04999999701976776
            ],
            "translation" : [
                0.800000011920929,
                1,
                -2.239999771118164
            ]
        }
    ],
    "materials" : [
        {
            "doubleSided" : true,
            "emissiveFactor" : [
                0,
                0,
                0
            ],
            "name" : "Material.004",
            "pbrMetallicRoughness" : {
                "baseColorFactor" : [
                    0,
                    0,
                    0,
                    1
                ],
                "metallicFactor" : 1,
                "roughnessFactor" : 0
            }
        },
        {
            "doubleSided" : true,
            "emissiveFactor" : [
                0.920760989189148,
                1,
                0
            ],
            "name" : "Material.002",
            "pbrMetallicRoughness" : {
                "baseColorFactor" : [
                    1,
                    0.8080064654350281,
                    0,
                    1
                ],
                "metallicFactor" : 0,
                "roughnessFactor" : 0
            }
        }
    ],
    "meshes" : [
        {
            "name" : "Cube.001",
            "primitives" : [
                {
                    "attributes" : {
                        "POSITION" : 0,
                        "NORMAL" : 1,
                        "TEXCOORD_0" : 2
                    },
                    "indices" : 3,
                    "material" : 0
                }
            ]
        },
        {
            "name" : "Cylinder",
            "primitives" : [
                {
                    "attributes" : {
                        "POSITION" : 4,
                        "NORMAL" : 5,
                        "TEXCOORD_0" : 6
                    },
                    "indices" : 7,
                    "material" : 0
                }
            ]
        },
        {
            "name" : "Cylinder.001",
            "primitives" : [
                {
                    "attributes" : {
                        "POSITION" : 8,
                        "NORMAL" : 9,
                        "TEXCOORD_0" : 10
                    },
                    "indices" : 7,
                    "material" : 0
                }
            ]
        },
        {
            "name" : "Cube.003",
            "primitives" : [
                {
                    "attributes" : {
                        "POSITION" : 11,
                        "NORMAL" : 12,
                        "TEXCOORD_0" : 13
                    },
                    "indices" : 3,
                    "material" : 0
                }
            ]
        },
        {
            "name" : "Cube.004",
            "primitives" : [
                {
                    "attributes" : {
                        "POSITION" : 14,
                        "NORMAL" : 15,
                        "TEXCOORD_0" : 16
                    },
                    "indices" : 3,
                    "material" : 0
                }
            ]
        },
        {
            "name" : "Cylinder.004",
            "primitives" : [
                {
                    "attributes" : {
                        "POSITION" : 17,
                        "NORMAL" : 18,
                        "TEXCOORD_0" : 19
                    },
                    "indices" : 7,
                    "material" : 0
                }
            ]
        },
        {
            "name" : "Cylinder.005",
            "primitives" : [
                {
                    "attributes" : {
                        "POSITION" : 20,
                        "NORMAL" : 21,
                        "TEXCOORD_0" : 22
                    },
                    "indices" : 7,
                    "material" : 0
                }
            ]
        },
        {
            "name" : "Cylinder.006",
            "primitives" : [
                {
                    "attributes" : {
                        "POSITION" : 23,
                        "NORMAL" : 24,
                        "TEXCOORD_0" : 25
                    },
                    "indices" : 7,
                    "material" : 0
                }
            ]
        },
        {
            "name" : "Cylinder.007",
            "primitives" : [
                {
                    "attributes" : {
                        "POSITION" : 26,
                        "NORMAL" : 27,
                        "TEXCOORD_0" : 28
                    },
                    "indices" : 29,
                    "material" : 1
                }
            ]
        },
        {
            "name" : "Cylinder.008",
            "primitives" : [
                {
                    "attributes" : {
                        "POSITION" : 30,
                        "NORMAL" : 31,
                        "TEXCOORD_0" : 32
                    },
                    "indices" : 29,
                    "material" : 1
                }
            ]
        }
    ],
    "accessors" : [
        {
            "bufferView" : 0,
            "componentType" : 5126,
            "count" : 24,
            "max" : [
                1,
                1,
                1
            ],
            "min" : [
                -1,
                -1,
                -1
            ],
            "type" : "VEC3"
        },
        {
            "bufferView" : 1,
            "componentType" : 5126,
            "count" : 24,
            "type" : "VEC3"
        },
        {
            "bufferView" : 2,
            "componentType" : 5126,
            "count" : 24,
            "type" : "VEC2"
        },
        {
            "bufferView" : 3,
            "componentType" : 5123,
            "count" : 36,
            "type" : "SCALAR"
        },
        {
            "bufferView" : 4,
            "componentType" : 5126,
            "count" : 192,
            "max" : [
                1,
                1,
                1
            ],
            "min" : [
                -1,
                -1,
                -1
            ],
            "type" : "VEC3"
        },
        {
            "bufferView" : 5,
            "componentType" : 5126,
            "count" : 192,
            "type" : "VEC3"
        },
        {
            "bufferView" : 6,
            "componentType" : 5126,
            "count" : 192,
            "type" : "VEC2"
        },
        {
            "bufferView" : 7,
            "componentType" : 5123,
            "count" : 372,
            "type" : "SCALAR"
        },
        {
            "bufferView" : 8,
            "componentType" : 5126,
            "count" : 192,
            "max" : [
                1,
                1,
                1
            ],
            "min" : [
                -1,
                -1,
                -1
            ],
            "type" : "VEC3"
        },
        {
            "bufferView" : 9,
            "componentType" : 5126,
            "count" : 192,
            "type" : "VEC3"
        },
        {
            "bufferView" : 10,
            "componentType" : 5126,
            "count" : 192,
            "type" : "VEC2"
        },
        {
            "bufferView" : 11,
            "componentType" : 5126,
            "count" : 24,
            "max" : [
                1,
                1,
                1
            ],
            "min" : [
                -1,
                -1,
                -1
            ],
            "type" : "VEC3"
        },
        {
            "bufferView" : 12,
            "componentType" : 5126,
            "count" : 24,
            "type" : "VEC3"
        },
        {
            "bufferView" : 13,
            "componentType" : 5126,
            "count" : 24,
            "type" : "VEC2"
        },
        {
            "bufferView" : 14,
            "componentType" : 5126,
            "count" : 24,
            "max" : [
                1,
                1,
                1
            ],
            "min" : [
                -1,
                -1,
                -1
            ],
            "type" : "VEC3"
        },
        {
            "bufferView" : 15,
            "componentType" : 5126,
            "count" : 24,
            "type" : "VEC3"
        },
        {
            "bufferView" : 16,
            "componentType" : 5126,
            "count" : 24,
            "type" : "VEC2"
        },
        {
            "bufferView" : 17,
            "componentType" : 5126,
            "count" : 192,
            "max" : [
                1,
                1,
                1
            ],
            "min" : [
                -1,
                -1,
                -1
            ],
            "type" : "VEC3"
        },
        {
            "bufferView" : 18,
            "componentType" : 5126,
            "count" : 192,
            "type" : "VEC3"
        },
        {
            "bufferView" : 19,
            "componentType" : 5126,
            "count" : 192,
            "type" : "VEC2"
        },
        {
            "bufferView" : 20,
            "componentType" : 5126,
            "count" : 192,
            "max" : [
                1,
                1,
                1
            ],
            "min" : [
                -1,
                -1,
                -1
            ],
            "type" : "VEC3"
        },
        {
            "bufferView" : 21,
            "componentType" : 5126,
            "count" : 192,
            "type" : "VEC3"
        },
        {
            "bufferView" : 22,
            "componentType" : 5126,
            "count" : 192,
            "type" : "VEC2"
        },
        {
            "bufferView" : 23,
            "componentType" : 5126,
            "count" : 192,
            "max" : [
                1,
                1,
                1
            ],
            "min" : [
                -1,
                -1,
                -1
            ],
            "type" : "VEC3"
        },
        {
            "bufferView" : 24,
            "componentType" : 5126,
            "count" : 192,
            "type" : "VEC3"
        },
        {
            "bufferView" : 25,
            "componentType" : 5126,
            "count" : 192,
            "type" : "VEC2"
        },
        {
            "bufferView" : 26,
            "componentType" : 5126,
            "count" : 414,
            "max" : [
                0.34990933537483215,
                1,
                0.34963732957839966
            ],
            "min" : [
                -0.34990933537483215,
                -1,
                -0.3500000238418579
            ],
            "type" : "VEC3"
        },
        {
            "bufferView" : 27,
            "componentType" : 5126,
            "count" : 414,
            "type" : "VEC3"
        },
        {
            "bufferView" : 28,
            "componentType" : 5126,
            "count" : 414,
            "type" : "VEC2"
        },
        {
            "bufferView" : 29,
            "componentType" : 5123,
            "count" : 816,
            "type" : "SCALAR"
        },
        {
            "bufferView" : 30,
            "componentType" : 5126,
            "count" : 414,
            "max" : [
                0.34990933537483215,
                1,
                0.34963732957839966
            ],
            "min" : [
                -0.34990933537483215,
                -1,
                -0.3500000238418579
            ],
            "type" : "VEC3"
        },
        {
            "bufferView" : 31,
            "componentType" : 5126,
            "count" : 414,
            "type" : "VEC3"
        },
        {
            "bufferView" : 32,
            "componentType" : 5126,
            "count" : 414,
            "type" : "VEC2"
        }
    ],
    "bufferViews" : [
        {
            "buffer" : 0,
            "byteLength" : 288,
            "byteOffset" : 0
        },
        {
            "buffer" : 0,
            "byteLength" : 288,
            "byteOffset" : 288
        },
        {
            "buffer" : 0,
            "byteLength" : 192,
            "byteOffset" : 576
        },
        {
            "buffer" : 0,
            "byteLength" : 72,
            "byteOffset" : 768
        },
        {
            "buffer" : 0,
            "byteLength" : 2304,
            "byteOffset" : 840
        },
        {
            "buffer" : 0,
            "byteLength" : 2304,
            "byteOffset" : 3144
        },
        {
            "buffer" : 0,
            "byteLength" : 1536,
            "byteOffset" : 5448
        },
        {
            "buffer" : 0,
            "byteLength" : 744,
            "byteOffset" : 6984
        },
        {
            "buffer" : 0,
            "byteLength" : 2304,
            "byteOffset" : 7728
        },
        {
            "buffer" : 0,
            "byteLength" : 2304,
            "byteOffset" : 10032
        },
        {
            "buffer" : 0,
            "byteLength" : 1536,
            "byteOffset" : 12336
        },
        {
            "buffer" : 0,
            "byteLength" : 288,
            "byteOffset" : 13872
        },
        {
            "buffer" : 0,
            "byteLength" : 288,
            "byteOffset" : 14160
        },
        {
            "buffer" : 0,
            "byteLength" : 192,
            "byteOffset" : 14448
        },
        {
            "buffer" : 0,
            "byteLength" : 288,
            "byteOffset" : 14640
        },
        {
            "buffer" : 0,
            "byteLength" : 288,
            "byteOffset" : 14928
        },
        {
            "buffer" : 0,
            "byteLength" : 192,
            "byteOffset" : 15216
        },
        {
            "buffer" : 0,
            "byteLength" : 2304,
            "byteOffset" : 15408
        },
        {
            "buffer" : 0,
            "byteLength" : 2304,
            "byteOffset" : 17712
        },
        {
            "buffer" : 0,
            "byteLength" : 1536,
            "byteOffset" : 20016
        },
        {
            "buffer" : 0,
            "byteLength" : 2304,
            "byteOffset" : 21552
        },
        {
            "buffer" : 0,
            "byteLength" : 2304,
            "byteOffset" : 23856
        },
        {
            "buffer" : 0,
            "byteLength" : 1536,
            "byteOffset" : 26160
        },
        {
            "buffer" : 0,
            "byteLength" : 2304,
            "byteOffset" : 27696
        },
        {
            "buffer" : 0,
            "byteLength" : 2304,
            "byteOffset" : 30000
        },
        {
            "buffer" : 0,
            "byteLength" : 1536,
            "byteOffset" : 32304
        },
        {
            "buffer" : 0,
            "byteLength" : 4968,
            "byteOffset" : 33840
        },
        {
            "buffer" : 0,
            "byteLength" : 4968,
            "byteOffset" : 38808
        },
        {
            "buffer" : 0,
            "byteLength" : 3312,
            "byteOffset" : 43776
        },
        {
            "buffer" : 0,
            "byteLength" : 1632,
            "byteOffset" : 47088
        },
        {
            "buffer" : 0,
            "byteLength" : 4968,
            "byteOffset" : 48720
        },
        {
            "buffer" : 0,
            "byteLength" : 4968,
            "byteOffset" : 53688
        },
        {
            "buffer" : 0,
            "byteLength" : 3312,
            "byteOffset" : 58656
        }
    ],
    "buffers" : [
        {
            "byteLength" : 61968,
            "uri" : "data:application/octet-stream;base64,"
        }
    ]
}
