{
    "asset" : {
        "generator" : "Khronos glTF Blender I/O v1.2.75",
        "version" : "2.0"
    },
    "scene" : 0,
    "scenes" : [
        {
            "name" : "Scene",
            "nodes" : [
                0,
                1
            ]
        }
    ],
    "nodes" : [
        {
            "mesh" : 0,
            "name" : "Cube",
            "rotation" : [
                0,
                0,
                -1,
                -1.6292068494294654e-07
            ]
        },
        {
            "name" : "Circle",
            "rotation" : [
                0.7071067690849304,
                0,
                0,
                0.7071067690849304
            ]
        }
    ],
    "animations" : [
        {
            "channels" : [
                {
                    "sampler" : 0,
                    "target" : {
                        "node" : 0,
                        "path" : "translation"
                    }
                }
            ],
            "name" : "CubeAction.001",
            "samplers" : [
                {
                    "input" : 4,
                    "interpolation" : "LINEAR",
                    "output" : 5
                }
            ]
        }
    ],
    "meshes" : [
        {
            "name" : "Cube.002",
            "primitives" : [
                {
                    "attributes" : {
                        "POSITION" : 0,
                        "NORMAL" : 1,
                        "TEXCOORD_0" : 2
                    },
                    "indices" : 3
                }
            ]
        }
    ],
    "accessors" : [
        {
            "bufferView" : 0,
            "componentType" : 5126,
            "count" : 63742,
            "max" : [
                14.648902893066406,
                1.162131428718567,
                1.1008756160736084
            ],
            "min" : [
                4.691923141479492,
                -1.1621235609054565,
                -1.1008756160736084
            ],
            "type" : "VEC3"
        },
        {
            "bufferView" : 1,
            "componentType" : 5126,
            "count" : 63742,
            "type" : "VEC3"
        },
        {
            "bufferView" : 2,
            "componentType" : 5126,
            "count" : 63742,
            "type" : "VEC2"
        },
        {
            "bufferView" : 3,
            "componentType" : 5123,
            "count" : 95760,
            "type" : "SCALAR"
        },
        {
            "bufferView" : 4,
            "componentType" : 5126,
            "count" : 201,
            "max" : [
                8.333333333333334
            ],
            "min" : [
                0
            ],
            "type" : "SCALAR"
        },
        {
            "bufferView" : 5,
            "componentType" : 5126,
            "count" : 201,
            "type" : "VEC3"
        }
    ],
    "bufferViews" : [
        {
            "buffer" : 0,
            "byteLength" : 764904,
            "byteOffset" : 0
        },
        {
            "buffer" : 0,
            "byteLength" : 764904,
            "byteOffset" : 764904
        },
        {
            "buffer" : 0,
            "byteLength" : 509936,
            "byteOffset" : 1529808
        },
        {
            "buffer" : 0,
            "byteLength" : 191520,
            "byteOffset" : 2039744
        },
        {
            "buffer" : 0,
            "byteLength" : 804,
            "byteOffset" : 2231264
        },
        {
            "buffer" : 0,
            "byteLength" : 2412,
            "byteOffset" : 2232068
        }
    ],
    "buffers" : [
        {
            "byteLength" : 2234480,
            "uri" : "data:application/octet-stream;base64,"
        }
    ]
}
