{
    "asset" : {
        "generator" : "Khronos glTF Blender I/O v1.2.75",
        "version" : "2.0"
    },
    "scene" : 0,
    "scenes" : [
        {
            "name" : "Scene",
            "nodes" : [
                0,
                1,
                2,
                3,
                4,
                5,
                6,
                7,
                8,
                9,
                10,
                11,
                12
            ]
        }
    ],
    "nodes" : [
        {
            "name" : "Light",
            "rotation" : [
                0.16907575726509094,
                0.7558803558349609,
                -0.27217137813568115,
                0.570947527885437
            ],
            "translation" : [
                4.076245307922363,
                5.903861999511719,
                -1.0054539442062378
            ]
        },
        {
            "name" : "Camera",
            "rotation" : [
                0.4091964066028595,
                0.5753855109214783,
                -0.405583918094635,
                0.5805096626281738
            ],
            "translation" : [
                14.90570068359375,
                7.596669673919678,
                -1.1804909706115723
            ]
        },
        {
            "mesh" : 0,
            "name" : "Cylinder",
            "scale" : [
                0.5,
                2,
                0.5
            ],
            "translation" : [
                1,
                2.0999999046325684,
                -1
            ]
        },
        {
            "mesh" : 1,
            "name" : "Cylinder.001",
            "scale" : [
                0.5009999871253967,
                0.10000000149011612,
                0.5009999871253967
            ],
            "translation" : [
                1,
                0.10000000149011612,
                -1
            ]
        },
        {
            "mesh" : 2,
            "name" : "Sphere",
            "scale" : [
                0.5,
                0.5,
                0.5
            ],
            "translation" : [
                1,
                4.099999904632568,
                -1
            ]
        },
        {
            "mesh" : 3,
            "name" : "Cylinder.002",
            "scale" : [
                0.30000001192092896,
                0.20000000298023224,
                0.30000001192092896
            ],
            "translation" : [
                1,
                4.5,
                -1
            ]
        },
        {
            "mesh" : 4,
            "name" : "Cylinder.003",
            "scale" : [
                0.06000000238418579,
                0.5999999046325684,
                0.06000000238418579
            ],
            "translation" : [
                1,
                4.699999809265137,
                -1
            ]
        },
        {
            "mesh" : 5,
            "name" : "Cylinder.004",
            "rotation" : [
                0.7071067690849304,
                0,
                0,
                0.7071067690849304
            ],
            "scale" : [
                0.07000000029802322,
                0.3100000023841858,
                0.07000000029802322
            ],
            "translation" : [
                1,
                4.900000095367432,
                -0.8500001430511475
            ]
        },
        {
            "mesh" : 6,
            "name" : "Cylinder.005",
            "rotation" : [
                0.7071067690849304,
                0,
                0,
                0.7071067690849304
            ],
            "scale" : [
                0.07000000029802322,
                0.009999999776482582,
                0.07000000029802322
            ],
            "translation" : [
                1,
                4.900000095367432,
                -0.5343666672706604
            ]
        },
        {
            "mesh" : 7,
            "name" : "Cylinder.006",
            "rotation" : [
                0.7071067690849304,
                0,
                0,
                0.7071067690849304
            ],
            "scale" : [
                0.040000006556510925,
                0.12999989092350006,
                0.040000006556510925
            ],
            "translation" : [
                1,
                5.2433671951293945,
                -1.0700000524520874
            ]
        },
        {
            "mesh" : 8,
            "name" : "Cylinder.007",
            "rotation" : [
                0.5,
                0.5,
                -0.5,
                0.4999999701976776
            ],
            "scale" : [
                0.09999999403953552,
                0.03999999910593033,
                0.09999999403953552
            ],
            "translation" : [
                1.0654264688491821,
                4.900000095367432,
                -0.8597027659416199
            ]
        },
        {
            "mesh" : 9,
            "name" : "Cylinder.008",
            "rotation" : [
                0.5,
                0.5,
                -0.5,
                0.4999999701976776
            ],
            "scale" : [
                0.07999999821186066,
                0.009999999776482582,
                0.07999999821186066
            ],
            "translation" : [
                1.1028399467468262,
                4.900000095367432,
                -0.859703004360199
            ]
        },
        {
            "mesh" : 10,
            "name" : "Cube",
            "scale" : [
                0.009999999776482582,
                0.059999994933605194,
                0.009999999776482582
            ],
            "translation" : [
                1.112839937210083,
                4.900000095367432,
                -0.859703004360199
            ]
        }
    ],
    "materials" : [
        {
            "doubleSided" : true,
            "emissiveFactor" : [
                0,
                0,
                0
            ],
            "name" : "Material.003",
            "pbrMetallicRoughness" : {
                "baseColorFactor" : [
                    0.800000011920929,
                    0.800000011920929,
                    0.800000011920929,
                    1
                ],
                "metallicFactor" : 1,
                "roughnessFactor" : 0.5
            }
        },
        {
            "doubleSided" : true,
            "emissiveFactor" : [
                0,
                0,
                0
            ],
            "name" : "Material.001",
            "pbrMetallicRoughness" : {
                "baseColorFactor" : [
                    0,
                    0,
                    0,
                    1
                ],
                "metallicFactor" : 0,
                "roughnessFactor" : 1
            }
        },
        {
            "doubleSided" : true,
            "emissiveFactor" : [
                0,
                0,
                0
            ],
            "name" : "Material.002",
            "pbrMetallicRoughness" : {
                "baseColorFactor" : [
                    0.004063376225531101,
                    0.0946258008480072,
                    0,
                    1
                ],
                "metallicFactor" : 0,
                "roughnessFactor" : 0.5
            }
        },
        {
            "doubleSided" : true,
            "emissiveFactor" : [
                0,
                0,
                0
            ],
            "name" : "Material",
            "pbrMetallicRoughness" : {
                "baseColorFactor" : [
                    0.800000011920929,
                    0.800000011920929,
                    0.800000011920929,
                    1
                ],
                "metallicFactor" : 0,
                "roughnessFactor" : 0.4000000059604645
            }
        },
        {
            "doubleSided" : true,
            "emissiveFactor" : [
                0,
                0,
                0
            ],
            "name" : "Material.004",
            "pbrMetallicRoughness" : {
                "baseColorFactor" : [
                    0.8000000715255737,
                    0.0020927090663462877,
                    0,
                    1
                ],
                "metallicFactor" : 0,
                "roughnessFactor" : 0.5
            }
        }
    ],
    "meshes" : [
        {
            "name" : "Cylinder",
            "primitives" : [
                {
                    "attributes" : {
                        "POSITION" : 0,
                        "NORMAL" : 1,
                        "TEXCOORD_0" : 2
                    },
                    "indices" : 3,
                    "material" : 0
                }
            ]
        },
        {
            "name" : "Cylinder.001",
            "primitives" : [
                {
                    "attributes" : {
                        "POSITION" : 4,
                        "NORMAL" : 5,
                        "TEXCOORD_0" : 6
                    },
                    "indices" : 3,
                    "material" : 1
                }
            ]
        },
        {
            "name" : "Sphere",
            "primitives" : [
                {
                    "attributes" : {
                        "POSITION" : 7,
                        "NORMAL" : 8,
                        "TEXCOORD_0" : 9
                    },
                    "indices" : 10,
                    "material" : 2
                }
            ]
        },
        {
            "name" : "Cylinder.002",
            "primitives" : [
                {
                    "attributes" : {
                        "POSITION" : 11,
                        "NORMAL" : 12,
                        "TEXCOORD_0" : 13
                    },
                    "indices" : 14,
                    "material" : 2
                }
            ]
        },
        {
            "name" : "Cylinder.003",
            "primitives" : [
                {
                    "attributes" : {
                        "POSITION" : 15,
                        "NORMAL" : 16,
                        "TEXCOORD_0" : 17
                    },
                    "indices" : 18,
                    "material" : 0
                }
            ]
        },
        {
            "name" : "Cylinder.004",
            "primitives" : [
                {
                    "attributes" : {
                        "POSITION" : 19,
                        "NORMAL" : 20,
                        "TEXCOORD_0" : 21
                    },
                    "indices" : 18,
                    "material" : 2
                }
            ]
        },
        {
            "name" : "Cylinder.005",
            "primitives" : [
                {
                    "attributes" : {
                        "POSITION" : 22,
                        "NORMAL" : 23,
                        "TEXCOORD_0" : 24
                    },
                    "indices" : 18,
                    "material" : 1
                }
            ]
        },
        {
            "name" : "Cylinder.006",
            "primitives" : [
                {
                    "attributes" : {
                        "POSITION" : 25,
                        "NORMAL" : 26,
                        "TEXCOORD_0" : 27
                    },
                    "indices" : 3,
                    "material" : 0
                }
            ]
        },
        {
            "name" : "Cylinder.007",
            "primitives" : [
                {
                    "attributes" : {
                        "POSITION" : 28,
                        "NORMAL" : 29,
                        "TEXCOORD_0" : 30
                    },
                    "indices" : 18,
                    "material" : 1
                }
            ]
        },
        {
            "name" : "Cylinder.008",
            "primitives" : [
                {
                    "attributes" : {
                        "POSITION" : 31,
                        "NORMAL" : 32,
                        "TEXCOORD_0" : 33
                    },
                    "indices" : 18,
                    "material" : 3
                }
            ]
        },
        {
            "name" : "Cube.001",
            "primitives" : [
                {
                    "attributes" : {
                        "POSITION" : 34,
                        "NORMAL" : 35,
                        "TEXCOORD_0" : 36
                    },
                    "indices" : 37,
                    "material" : 4
                }
            ]
        }
    ],
    "accessors" : [
        {
            "bufferView" : 0,
            "componentType" : 5126,
            "count" : 130,
            "max" : [
                1,
                1,
                1
            ],
            "min" : [
                -1,
                -1,
                -1
            ],
            "type" : "VEC3"
        },
        {
            "bufferView" : 1,
            "componentType" : 5126,
            "count" : 130,
            "type" : "VEC3"
        },
        {
            "bufferView" : 2,
            "componentType" : 5126,
            "count" : 130,
            "type" : "VEC2"
        },
        {
            "bufferView" : 3,
            "componentType" : 5123,
            "count" : 372,
            "type" : "SCALAR"
        },
        {
            "bufferView" : 4,
            "componentType" : 5126,
            "count" : 130,
            "max" : [
                1,
                1,
                1
            ],
            "min" : [
                -1,
                -1,
                -1
            ],
            "type" : "VEC3"
        },
        {
            "bufferView" : 5,
            "componentType" : 5126,
            "count" : 130,
            "type" : "VEC3"
        },
        {
            "bufferView" : 6,
            "componentType" : 5126,
            "count" : 130,
            "type" : "VEC2"
        },
        {
            "bufferView" : 7,
            "componentType" : 5126,
            "count" : 559,
            "max" : [
                1.000000238418579,
                1,
                1.0000003576278687
            ],
            "min" : [
                -0.9999998211860657,
                -1,
                -1
            ],
            "type" : "VEC3"
        },
        {
            "bufferView" : 8,
            "componentType" : 5126,
            "count" : 559,
            "type" : "VEC3"
        },
        {
            "bufferView" : 9,
            "componentType" : 5126,
            "count" : 559,
            "type" : "VEC2"
        },
        {
            "bufferView" : 10,
            "componentType" : 5123,
            "count" : 2880,
            "type" : "SCALAR"
        },
        {
            "bufferView" : 11,
            "componentType" : 5126,
            "count" : 130,
            "max" : [
                1.1465249061584473,
                0.9999954700469971,
                1.1465249061584473
            ],
            "min" : [
                -1.1465249061584473,
                -1.0000008344650269,
                -1.1465249061584473
            ],
            "type" : "VEC3"
        },
        {
            "bufferView" : 12,
            "componentType" : 5126,
            "count" : 130,
            "type" : "VEC3"
        },
        {
            "bufferView" : 13,
            "componentType" : 5126,
            "count" : 130,
            "type" : "VEC2"
        },
        {
            "bufferView" : 14,
            "componentType" : 5123,
            "count" : 372,
            "type" : "SCALAR"
        },
        {
            "bufferView" : 15,
            "componentType" : 5126,
            "count" : 192,
            "max" : [
                1,
                1,
                1
            ],
            "min" : [
                -1,
                -1,
                -1
            ],
            "type" : "VEC3"
        },
        {
            "bufferView" : 16,
            "componentType" : 5126,
            "count" : 192,
            "type" : "VEC3"
        },
        {
            "bufferView" : 17,
            "componentType" : 5126,
            "count" : 192,
            "type" : "VEC2"
        },
        {
            "bufferView" : 18,
            "componentType" : 5123,
            "count" : 372,
            "type" : "SCALAR"
        },
        {
            "bufferView" : 19,
            "componentType" : 5126,
            "count" : 192,
            "max" : [
                1,
                1,
                1
            ],
            "min" : [
                -1,
                -1,
                -1
            ],
            "type" : "VEC3"
        },
        {
            "bufferView" : 20,
            "componentType" : 5126,
            "count" : 192,
            "type" : "VEC3"
        },
        {
            "bufferView" : 21,
            "componentType" : 5126,
            "count" : 192,
            "type" : "VEC2"
        },
        {
            "bufferView" : 22,
            "componentType" : 5126,
            "count" : 192,
            "max" : [
                1,
                1,
                1
            ],
            "min" : [
                -1,
                -1,
                -1
            ],
            "type" : "VEC3"
        },
        {
            "bufferView" : 23,
            "componentType" : 5126,
            "count" : 192,
            "type" : "VEC3"
        },
        {
            "bufferView" : 24,
            "componentType" : 5126,
            "count" : 192,
            "type" : "VEC2"
        },
        {
            "bufferView" : 25,
            "componentType" : 5126,
            "count" : 130,
            "max" : [
                1,
                1,
                1
            ],
            "min" : [
                -1,
                -1,
                -1
            ],
            "type" : "VEC3"
        },
        {
            "bufferView" : 26,
            "componentType" : 5126,
            "count" : 130,
            "type" : "VEC3"
        },
        {
            "bufferView" : 27,
            "componentType" : 5126,
            "count" : 130,
            "type" : "VEC2"
        },
        {
            "bufferView" : 28,
            "componentType" : 5126,
            "count" : 192,
            "max" : [
                1,
                1,
                1
            ],
            "min" : [
                -1,
                -1,
                -1
            ],
            "type" : "VEC3"
        },
        {
            "bufferView" : 29,
            "componentType" : 5126,
            "count" : 192,
            "type" : "VEC3"
        },
        {
            "bufferView" : 30,
            "componentType" : 5126,
            "count" : 192,
            "type" : "VEC2"
        },
        {
            "bufferView" : 31,
            "componentType" : 5126,
            "count" : 192,
            "max" : [
                1,
                1,
                1
            ],
            "min" : [
                -1,
                -1,
                -1
            ],
            "type" : "VEC3"
        },
        {
            "bufferView" : 32,
            "componentType" : 5126,
            "count" : 192,
            "type" : "VEC3"
        },
        {
            "bufferView" : 33,
            "componentType" : 5126,
            "count" : 192,
            "type" : "VEC2"
        },
        {
            "bufferView" : 34,
            "componentType" : 5126,
            "count" : 24,
            "max" : [
                1,
                1,
                1
            ],
            "min" : [
                -1,
                -1,
                -1
            ],
            "type" : "VEC3"
        },
        {
            "bufferView" : 35,
            "componentType" : 5126,
            "count" : 24,
            "type" : "VEC3"
        },
        {
            "bufferView" : 36,
            "componentType" : 5126,
            "count" : 24,
            "type" : "VEC2"
        },
        {
            "bufferView" : 37,
            "componentType" : 5123,
            "count" : 36,
            "type" : "SCALAR"
        }
    ],
    "bufferViews" : [
        {
            "buffer" : 0,
            "byteLength" : 1560,
            "byteOffset" : 0
        },
        {
            "buffer" : 0,
            "byteLength" : 1560,
            "byteOffset" : 1560
        },
        {
            "buffer" : 0,
            "byteLength" : 1040,
            "byteOffset" : 3120
        },
        {
            "buffer" : 0,
            "byteLength" : 744,
            "byteOffset" : 4160
        },
        {
            "buffer" : 0,
            "byteLength" : 1560,
            "byteOffset" : 4904
        },
        {
            "buffer" : 0,
            "byteLength" : 1560,
            "byteOffset" : 6464
        },
        {
            "buffer" : 0,
            "byteLength" : 1040,
            "byteOffset" : 8024
        },
        {
            "buffer" : 0,
            "byteLength" : 6708,
            "byteOffset" : 9064
        },
        {
            "buffer" : 0,
            "byteLength" : 6708,
            "byteOffset" : 15772
        },
        {
            "buffer" : 0,
            "byteLength" : 4472,
            "byteOffset" : 22480
        },
        {
            "buffer" : 0,
            "byteLength" : 5760,
            "byteOffset" : 26952
        },
        {
            "buffer" : 0,
            "byteLength" : 1560,
            "byteOffset" : 32712
        },
        {
            "buffer" : 0,
            "byteLength" : 1560,
            "byteOffset" : 34272
        },
        {
            "buffer" : 0,
            "byteLength" : 1040,
            "byteOffset" : 35832
        },
        {
            "buffer" : 0,
            "byteLength" : 744,
            "byteOffset" : 36872
        },
        {
            "buffer" : 0,
            "byteLength" : 2304,
            "byteOffset" : 37616
        },
        {
            "buffer" : 0,
            "byteLength" : 2304,
            "byteOffset" : 39920
        },
        {
            "buffer" : 0,
            "byteLength" : 1536,
            "byteOffset" : 42224
        },
        {
            "buffer" : 0,
            "byteLength" : 744,
            "byteOffset" : 43760
        },
        {
            "buffer" : 0,
            "byteLength" : 2304,
            "byteOffset" : 44504
        },
        {
            "buffer" : 0,
            "byteLength" : 2304,
            "byteOffset" : 46808
        },
        {
            "buffer" : 0,
            "byteLength" : 1536,
            "byteOffset" : 49112
        },
        {
            "buffer" : 0,
            "byteLength" : 2304,
            "byteOffset" : 50648
        },
        {
            "buffer" : 0,
            "byteLength" : 2304,
            "byteOffset" : 52952
        },
        {
            "buffer" : 0,
            "byteLength" : 1536,
            "byteOffset" : 55256
        },
        {
            "buffer" : 0,
            "byteLength" : 1560,
            "byteOffset" : 56792
        },
        {
            "buffer" : 0,
            "byteLength" : 1560,
            "byteOffset" : 58352
        },
        {
            "buffer" : 0,
            "byteLength" : 1040,
            "byteOffset" : 59912
        },
        {
            "buffer" : 0,
            "byteLength" : 2304,
            "byteOffset" : 60952
        },
        {
            "buffer" : 0,
            "byteLength" : 2304,
            "byteOffset" : 63256
        },
        {
            "buffer" : 0,
            "byteLength" : 1536,
            "byteOffset" : 65560
        },
        {
            "buffer" : 0,
            "byteLength" : 2304,
            "byteOffset" : 67096
        },
        {
            "buffer" : 0,
            "byteLength" : 2304,
            "byteOffset" : 69400
        },
        {
            "buffer" : 0,
            "byteLength" : 1536,
            "byteOffset" : 71704
        },
        {
            "buffer" : 0,
            "byteLength" : 288,
            "byteOffset" : 73240
        },
        {
            "buffer" : 0,
            "byteLength" : 288,
            "byteOffset" : 73528
        },
        {
            "buffer" : 0,
            "byteLength" : 192,
            "byteOffset" : 73816
        },
        {
            "buffer" : 0,
            "byteLength" : 72,
            "byteOffset" : 74008
        }
    ],
    "buffers" : [
        {
            "byteLength" : 74080,
            "uri" : "data:application/octet-stream;base64,"
        }
    ]
}
