{
    "asset" : {
        "generator" : "Khronos glTF Blender I/O v1.2.75",
        "version" : "2.0"
    },
    "scene" : 0,
    "scenes" : [
        {
            "name" : "Scene",
            "nodes" : [
                0,
                1,
                2,
                3,
                4,
                5,
                6,
                7,
                8,
                9,
                10,
                11,
                12,
                13
            ]
        }
    ],
    "nodes" : [
        {
            "name" : "Light",
            "rotation" : [
                0.16907575726509094,
                0.7558803558349609,
                -0.27217137813568115,
                0.570947527885437
            ],
            "translation" : [
                4.075476169586182,
                3.2057082653045654,
                1.1177725791931152
            ]
        },
        {
            "name" : "Camera",
            "rotation" : [
                0.37055957317352295,
                0.5710618495941162,
                -0.32151010632514954,
                0.6581832766532898
            ],
            "translation" : [
                9.65179443359375,
                5.90023946762085,
                -0.1538759469985962
            ]
        },
        {
            "mesh" : 0,
            "name" : "Cube",
            "scale" : [
                1,
                1,
                2
            ],
            "translation" : [
                1,
                1,
                -2
            ]
        },
        {
            "mesh" : 1,
            "name" : "Cylinder",
            "rotation" : [
                0.7071067690849304,
                0,
                0,
                0.7071067690849304
            ],
            "scale" : [
                0.05000000074505806,
                2,
                0.05000000074505806
            ],
            "translation" : [
                2,
                1,
                -2
            ]
        },
        {
            "mesh" : 2,
            "name" : "Cylinder.001",
            "rotation" : [
                0.7071067690849304,
                0,
                0,
                0.7071067690849304
            ],
            "scale" : [
                0.05000000074505806,
                2,
                0.05000000074505806
            ],
            "translation" : [
                0,
                1,
                -2
            ]
        },
        {
            "mesh" : 3,
            "name" : "Cylinder.002",
            "rotation" : [
                0,
                0,
                -0.7071067690849304,
                0.7071067690849304
            ],
            "scale" : [
                0.05000000074505806,
                1,
                0.05000000074505806
            ],
            "translation" : [
                1,
                1,
                0
            ]
        },
        {
            "mesh" : 4,
            "name" : "Cylinder.003",
            "rotation" : [
                0,
                0,
                -0.7071067690849304,
                0.7071067690849304
            ],
            "scale" : [
                0.05000000074505806,
                1,
                0.05000000074505806
            ],
            "translation" : [
                1,
                1,
                -4
            ]
        },
        {
            "mesh" : 5,
            "name" : "Icosphere",
            "scale" : [
                0.05000000074505806,
                0.05000000074505806,
                0.05000000074505806
            ],
            "translation" : [
                0,
                1,
                0
            ]
        },
        {
            "mesh" : 6,
            "name" : "Icosphere.001",
            "scale" : [
                0.05000000074505806,
                0.05000000074505806,
                0.05000000074505806
            ],
            "translation" : [
                2,
                1,
                0
            ]
        },
        {
            "mesh" : 7,
            "name" : "Icosphere.002",
            "scale" : [
                0.05000000074505806,
                0.05000000074505806,
                0.05000000074505806
            ],
            "translation" : [
                0,
                1,
                -4
            ]
        },
        {
            "mesh" : 8,
            "name" : "Icosphere.003",
            "scale" : [
                0.05000000074505806,
                0.05000000074505806,
                0.05000000074505806
            ],
            "translation" : [
                2,
                1,
                -4
            ]
        },
        {
            "name" : "Text",
            "rotation" : [
                0.5356793403625488,
                0.5356793403625488,
                -0.4615708589553833,
                0.4615707993507385
            ],
            "scale" : [
                0.4000000059604645,
                0.880000114440918,
                0.30000001192092896
            ],
            "translation" : [
                2,
                1.2999999523162842,
                -1.7910799980163574
            ]
        },
        {
            "mesh" : 9,
            "name" : "Cube.001",
            "rotation" : [
                0.07410848885774612,
                0,
                0,
                0.9972501993179321
            ],
            "scale" : [
                0.09000018239021301,
                0.1900000274181366,
                1.0799996852874756
            ],
            "translation" : [
                1.940000295639038,
                1.5441710948944092,
                -2.755967140197754
            ]
        },
        {
            "mesh" : 10,
            "name" : "Cube.002",
            "scale" : [
                0.07999999821186066,
                0.07999999821186066,
                0.30000001192092896
            ],
            "translation" : [
                2.0199999809265137,
                1,
                -2
            ]
        }
    ],
    "materials" : [
        {
            "doubleSided" : true,
            "emissiveFactor" : [
                0,
                0,
                0
            ],
            "name" : "Material.001",
            "pbrMetallicRoughness" : {
                "baseColorFactor" : [
                    1,
                    1,
                    1,
                    1
                ],
                "metallicFactor" : 0,
                "roughnessFactor" : 1
            }
        },
        {
            "doubleSided" : true,
            "emissiveFactor" : [
                0,
                0,
                0
            ],
            "name" : "Material.002",
            "pbrMetallicRoughness" : {
                "baseColorFactor" : [
                    0.3263759911060333,
                    0.3263759911060333,
                    0.3263759911060333,
                    1
                ],
                "metallicFactor" : 0,
                "roughnessFactor" : 0.5
            }
        },
        {
            "doubleSided" : true,
            "emissiveFactor" : [
                0,
                0,
                0
            ],
            "name" : "Material.004",
            "pbrMetallicRoughness" : {
                "baseColorFactor" : [
                    1,
                    0.14902710914611816,
                    0.009444387629628181,
                    1
                ],
                "metallicFactor" : 0,
                "roughnessFactor" : 0.5
            }
        }
    ],
    "meshes" : [
        {
            "name" : "Cube.001",
            "primitives" : [
                {
                    "attributes" : {
                        "POSITION" : 0,
                        "NORMAL" : 1,
                        "TEXCOORD_0" : 2
                    },
                    "indices" : 3,
                    "material" : 0
                }
            ]
        },
        {
            "name" : "Cylinder",
            "primitives" : [
                {
                    "attributes" : {
                        "POSITION" : 4,
                        "NORMAL" : 5,
                        "TEXCOORD_0" : 6
                    },
                    "indices" : 7,
                    "material" : 1
                }
            ]
        },
        {
            "name" : "Cylinder.001",
            "primitives" : [
                {
                    "attributes" : {
                        "POSITION" : 8,
                        "NORMAL" : 9,
                        "TEXCOORD_0" : 10
                    },
                    "indices" : 7,
                    "material" : 1
                }
            ]
        },
        {
            "name" : "Cylinder.002",
            "primitives" : [
                {
                    "attributes" : {
                        "POSITION" : 11,
                        "NORMAL" : 12,
                        "TEXCOORD_0" : 13
                    },
                    "indices" : 7,
                    "material" : 1
                }
            ]
        },
        {
            "name" : "Cylinder.003",
            "primitives" : [
                {
                    "attributes" : {
                        "POSITION" : 14,
                        "NORMAL" : 15,
                        "TEXCOORD_0" : 16
                    },
                    "indices" : 7,
                    "material" : 1
                }
            ]
        },
        {
            "name" : "Icosphere",
            "primitives" : [
                {
                    "attributes" : {
                        "POSITION" : 17,
                        "NORMAL" : 18,
                        "TEXCOORD_0" : 19
                    },
                    "indices" : 20,
                    "material" : 1
                }
            ]
        },
        {
            "name" : "Icosphere.001",
            "primitives" : [
                {
                    "attributes" : {
                        "POSITION" : 21,
                        "NORMAL" : 22,
                        "TEXCOORD_0" : 23
                    },
                    "indices" : 20,
                    "material" : 1
                }
            ]
        },
        {
            "name" : "Icosphere.002",
            "primitives" : [
                {
                    "attributes" : {
                        "POSITION" : 24,
                        "NORMAL" : 25,
                        "TEXCOORD_0" : 26
                    },
                    "indices" : 20,
                    "material" : 1
                }
            ]
        },
        {
            "name" : "Icosphere.003",
            "primitives" : [
                {
                    "attributes" : {
                        "POSITION" : 27,
                        "NORMAL" : 28,
                        "TEXCOORD_0" : 29
                    },
                    "indices" : 20,
                    "material" : 1
                }
            ]
        },
        {
            "name" : "Cube",
            "primitives" : [
                {
                    "attributes" : {
                        "POSITION" : 30,
                        "NORMAL" : 31,
                        "TEXCOORD_0" : 32
                    },
                    "indices" : 33,
                    "material" : 2
                }
            ]
        },
        {
            "name" : "Cube.002",
            "primitives" : [
                {
                    "attributes" : {
                        "POSITION" : 34,
                        "NORMAL" : 35,
                        "TEXCOORD_0" : 36
                    },
                    "indices" : 33
                }
            ]
        }
    ],
    "accessors" : [
        {
            "bufferView" : 0,
            "componentType" : 5126,
            "count" : 600,
            "max" : [
                1.0292010307312012,
                1.0234822034835815,
                1.0254995822906494
            ],
            "min" : [
                -1.0000137090682983,
                -1.0255167484283447,
                -1.0227737426757812
            ],
            "type" : "VEC3"
        },
        {
            "bufferView" : 1,
            "componentType" : 5126,
            "count" : 600,
            "type" : "VEC3"
        },
        {
            "bufferView" : 2,
            "componentType" : 5126,
            "count" : 600,
            "type" : "VEC2"
        },
        {
            "bufferView" : 3,
            "componentType" : 5123,
            "count" : 900,
            "type" : "SCALAR"
        },
        {
            "bufferView" : 4,
            "componentType" : 5126,
            "count" : 192,
            "max" : [
                1,
                1,
                1
            ],
            "min" : [
                -1,
                -1,
                -1
            ],
            "type" : "VEC3"
        },
        {
            "bufferView" : 5,
            "componentType" : 5126,
            "count" : 192,
            "type" : "VEC3"
        },
        {
            "bufferView" : 6,
            "componentType" : 5126,
            "count" : 192,
            "type" : "VEC2"
        },
        {
            "bufferView" : 7,
            "componentType" : 5123,
            "count" : 372,
            "type" : "SCALAR"
        },
        {
            "bufferView" : 8,
            "componentType" : 5126,
            "count" : 192,
            "max" : [
                1,
                1,
                1
            ],
            "min" : [
                -1,
                -1,
                -1
            ],
            "type" : "VEC3"
        },
        {
            "bufferView" : 9,
            "componentType" : 5126,
            "count" : 192,
            "type" : "VEC3"
        },
        {
            "bufferView" : 10,
            "componentType" : 5126,
            "count" : 192,
            "type" : "VEC2"
        },
        {
            "bufferView" : 11,
            "componentType" : 5126,
            "count" : 192,
            "max" : [
                1,
                1,
                1
            ],
            "min" : [
                -1,
                -1,
                -1
            ],
            "type" : "VEC3"
        },
        {
            "bufferView" : 12,
            "componentType" : 5126,
            "count" : 192,
            "type" : "VEC3"
        },
        {
            "bufferView" : 13,
            "componentType" : 5126,
            "count" : 192,
            "type" : "VEC2"
        },
        {
            "bufferView" : 14,
            "componentType" : 5126,
            "count" : 192,
            "max" : [
                1,
                1,
                1
            ],
            "min" : [
                -1,
                -1,
                -1
            ],
            "type" : "VEC3"
        },
        {
            "bufferView" : 15,
            "componentType" : 5126,
            "count" : 192,
            "type" : "VEC3"
        },
        {
            "bufferView" : 16,
            "componentType" : 5126,
            "count" : 192,
            "type" : "VEC2"
        },
        {
            "bufferView" : 17,
            "componentType" : 5126,
            "count" : 15360,
            "max" : [
                1,
                1,
                0.9999999403953552
            ],
            "min" : [
                -0.9999999403953552,
                -1,
                -0.9999999403953552
            ],
            "type" : "VEC3"
        },
        {
            "bufferView" : 18,
            "componentType" : 5126,
            "count" : 15360,
            "type" : "VEC3"
        },
        {
            "bufferView" : 19,
            "componentType" : 5126,
            "count" : 15360,
            "type" : "VEC2"
        },
        {
            "bufferView" : 20,
            "componentType" : 5123,
            "count" : 15360,
            "type" : "SCALAR"
        },
        {
            "bufferView" : 21,
            "componentType" : 5126,
            "count" : 15360,
            "max" : [
                1,
                1,
                0.9999999403953552
            ],
            "min" : [
                -0.9999999403953552,
                -1,
                -0.9999999403953552
            ],
            "type" : "VEC3"
        },
        {
            "bufferView" : 22,
            "componentType" : 5126,
            "count" : 15360,
            "type" : "VEC3"
        },
        {
            "bufferView" : 23,
            "componentType" : 5126,
            "count" : 15360,
            "type" : "VEC2"
        },
        {
            "bufferView" : 24,
            "componentType" : 5126,
            "count" : 15360,
            "max" : [
                1,
                1,
                0.9999999403953552
            ],
            "min" : [
                -0.9999999403953552,
                -1,
                -0.9999999403953552
            ],
            "type" : "VEC3"
        },
        {
            "bufferView" : 25,
            "componentType" : 5126,
            "count" : 15360,
            "type" : "VEC3"
        },
        {
            "bufferView" : 26,
            "componentType" : 5126,
            "count" : 15360,
            "type" : "VEC2"
        },
        {
            "bufferView" : 27,
            "componentType" : 5126,
            "count" : 15360,
            "max" : [
                1,
                1,
                0.9999999403953552
            ],
            "min" : [
                -0.9999999403953552,
                -1,
                -0.9999999403953552
            ],
            "type" : "VEC3"
        },
        {
            "bufferView" : 28,
            "componentType" : 5126,
            "count" : 15360,
            "type" : "VEC3"
        },
        {
            "bufferView" : 29,
            "componentType" : 5126,
            "count" : 15360,
            "type" : "VEC2"
        },
        {
            "bufferView" : 30,
            "componentType" : 5126,
            "count" : 24,
            "max" : [
                1,
                1,
                1
            ],
            "min" : [
                -1,
                -1,
                -1
            ],
            "type" : "VEC3"
        },
        {
            "bufferView" : 31,
            "componentType" : 5126,
            "count" : 24,
            "type" : "VEC3"
        },
        {
            "bufferView" : 32,
            "componentType" : 5126,
            "count" : 24,
            "type" : "VEC2"
        },
        {
            "bufferView" : 33,
            "componentType" : 5123,
            "count" : 36,
            "type" : "SCALAR"
        },
        {
            "bufferView" : 34,
            "componentType" : 5126,
            "count" : 24,
            "max" : [
                1,
                1,
                1
            ],
            "min" : [
                -1,
                -1,
                -1
            ],
            "type" : "VEC3"
        },
        {
            "bufferView" : 35,
            "componentType" : 5126,
            "count" : 24,
            "type" : "VEC3"
        },
        {
            "bufferView" : 36,
            "componentType" : 5126,
            "count" : 24,
            "type" : "VEC2"
        }
    ],
    "bufferViews" : [
        {
            "buffer" : 0,
            "byteLength" : 7200,
            "byteOffset" : 0
        },
        {
            "buffer" : 0,
            "byteLength" : 7200,
            "byteOffset" : 7200
        },
        {
            "buffer" : 0,
            "byteLength" : 4800,
            "byteOffset" : 14400
        },
        {
            "buffer" : 0,
            "byteLength" : 1800,
            "byteOffset" : 19200
        },
        {
            "buffer" : 0,
            "byteLength" : 2304,
            "byteOffset" : 21000
        },
        {
            "buffer" : 0,
            "byteLength" : 2304,
            "byteOffset" : 23304
        },
        {
            "buffer" : 0,
            "byteLength" : 1536,
            "byteOffset" : 25608
        },
        {
            "buffer" : 0,
            "byteLength" : 744,
            "byteOffset" : 27144
        },
        {
            "buffer" : 0,
            "byteLength" : 2304,
            "byteOffset" : 27888
        },
        {
            "buffer" : 0,
            "byteLength" : 2304,
            "byteOffset" : 30192
        },
        {
            "buffer" : 0,
            "byteLength" : 1536,
            "byteOffset" : 32496
        },
        {
            "buffer" : 0,
            "byteLength" : 2304,
            "byteOffset" : 34032
        },
        {
            "buffer" : 0,
            "byteLength" : 2304,
            "byteOffset" : 36336
        },
        {
            "buffer" : 0,
            "byteLength" : 1536,
            "byteOffset" : 38640
        },
        {
            "buffer" : 0,
            "byteLength" : 2304,
            "byteOffset" : 40176
        },
        {
            "buffer" : 0,
            "byteLength" : 2304,
            "byteOffset" : 42480
        },
        {
            "buffer" : 0,
            "byteLength" : 1536,
            "byteOffset" : 44784
        },
        {
            "buffer" : 0,
            "byteLength" : 184320,
            "byteOffset" : 46320
        },
        {
            "buffer" : 0,
            "byteLength" : 184320,
            "byteOffset" : 230640
        },
        {
            "buffer" : 0,
            "byteLength" : 122880,
            "byteOffset" : 414960
        },
        {
            "buffer" : 0,
            "byteLength" : 30720,
            "byteOffset" : 537840
        },
        {
            "buffer" : 0,
            "byteLength" : 184320,
            "byteOffset" : 568560
        },
        {
            "buffer" : 0,
            "byteLength" : 184320,
            "byteOffset" : 752880
        },
        {
            "buffer" : 0,
            "byteLength" : 122880,
            "byteOffset" : 937200
        },
        {
            "buffer" : 0,
            "byteLength" : 184320,
            "byteOffset" : 1060080
        },
        {
            "buffer" : 0,
            "byteLength" : 184320,
            "byteOffset" : 1244400
        },
        {
            "buffer" : 0,
            "byteLength" : 122880,
            "byteOffset" : 1428720
        },
        {
            "buffer" : 0,
            "byteLength" : 184320,
            "byteOffset" : 1551600
        },
        {
            "buffer" : 0,
            "byteLength" : 184320,
            "byteOffset" : 1735920
        },
        {
            "buffer" : 0,
            "byteLength" : 122880,
            "byteOffset" : 1920240
        },
        {
            "buffer" : 0,
            "byteLength" : 288,
            "byteOffset" : 2043120
        },
        {
            "buffer" : 0,
            "byteLength" : 288,
            "byteOffset" : 2043408
        },
        {
            "buffer" : 0,
            "byteLength" : 192,
            "byteOffset" : 2043696
        },
        {
            "buffer" : 0,
            "byteLength" : 72,
            "byteOffset" : 2043888
        },
        {
            "buffer" : 0,
            "byteLength" : 288,
            "byteOffset" : 2043960
        },
        {
            "buffer" : 0,
            "byteLength" : 288,
            "byteOffset" : 2044248
        },
        {
            "buffer" : 0,
            "byteLength" : 192,
            "byteOffset" : 2044536
        }
    ],
    "buffers" : [
        {
            "byteLength" : 2044728,
            "uri" : "data:application/octet-stream;base64,"
        }
    ]
}
